<svg xmlns="http://www.w3.org/2000/svg" version="1.1" xmlns:xlink="http://www.w3.org/1999/xlink" xmlns:svgjs="http://svgjs.dev/svgjs" viewBox="0 0 2400 800"><defs><linearGradient x1="50%" y1="0%" x2="50%" y2="100%" id="oooscillate-grad"><stop stop-color="hsl(206, 75%, 49%)" stop-opacity="1" offset="0%"></stop><stop stop-color="hsl(331, 90%, 56%)" stop-opacity="1" offset="100%"></stop></linearGradient></defs><g stroke-width="2.5" stroke="url(#oooscillate-grad)" fill="none" stroke-linecap="round"><path d="M 0 600 Q 600 60 1200 400 Q 1800 740 2400 600" opacity="0.08"></path><path d="M 0 580 Q 600 60 1200 400 Q 1800 740 2400 580" opacity="0.47"></path><path d="M 0 560 Q 600 60 1200 400 Q 1800 740 2400 560" opacity="0.86"></path><path d="M 0 540 Q 600 60 1200 400 Q 1800 740 2400 540" opacity="0.31"></path><path d="M 0 520 Q 600 60 1200 400 Q 1800 740 2400 520" opacity="0.53"></path><path d="M 0 500 Q 600 60 1200 400 Q 1800 740 2400 500" opacity="0.25"></path><path d="M 0 480 Q 600 60 1200 400 Q 1800 740 2400 480" opacity="0.84"></path><path d="M 0 460 Q 600 60 1200 400 Q 1800 740 2400 460" opacity="0.65"></path><path d="M 0 440 Q 600 60 1200 400 Q 1800 740 2400 440" opacity="0.79"></path><path d="M 0 420 Q 600 60 1200 400 Q 1800 740 2400 420" opacity="0.48"></path><path d="M 0 400 Q 600 60 1200 400 Q 1800 740 2400 400" opacity="0.88"></path><path d="M 0 380 Q 600 60 1200 400 Q 1800 740 2400 380" opacity="0.18"></path><path d="M 0 360 Q 600 60 1200 400 Q 1800 740 2400 360" opacity="0.90"></path><path d="M 0 340 Q 600 60 1200 400 Q 1800 740 2400 340" opacity="0.81"></path><path d="M 0 320 Q 600 60 1200 400 Q 1800 740 2400 320" opacity="0.78"></path><path d="M 0 300 Q 600 60 1200 400 Q 1800 740 2400 300" opacity="0.57"></path><path d="M 0 280 Q 600 60 1200 400 Q 1800 740 2400 280" opacity="0.12"></path><path d="M 0 260 Q 600 60 1200 400 Q 1800 740 2400 260" opacity="0.65"></path><path d="M 0 240 Q 600 60 1200 400 Q 1800 740 2400 240" opacity="0.33"></path><path d="M 0 220 Q 600 60 1200 400 Q 1800 740 2400 220" opacity="0.42"></path><path d="M 0 200 Q 600 60 1200 400 Q 1800 740 2400 200" opacity="0.31"></path><path d="M 0 180 Q 600 60 1200 400 Q 1800 740 2400 180" opacity="0.36"></path><path d="M 0 160 Q 600 60 1200 400 Q 1800 740 2400 160" opacity="0.18"></path><path d="M 0 140 Q 600 60 1200 400 Q 1800 740 2400 140" opacity="0.16"></path><path d="M 0 120 Q 600 60 1200 400 Q 1800 740 2400 120" opacity="0.61"></path><path d="M 0 100 Q 600 60 1200 400 Q 1800 740 2400 100" opacity="0.43"></path><path d="M 0 80 Q 600 60 1200 400 Q 1800 740 2400 80" opacity="0.46"></path><path d="M 0 60 Q 600 60 1200 400 Q 1800 740 2400 60" opacity="0.66"></path><path d="M 0 40 Q 600 60 1200 400 Q 1800 740 2400 40" opacity="0.11"></path></g></svg>