<?xml version="1.0" encoding="UTF-8" standalone="no"?>
<svg
   width="28.285868"
   height="29.173986"
   viewBox="0 0 28.285868 29.173986"
   fill="none"
   version="1.1"
   id="svg2148"
   sodipodi:docname="logo-visa-mastercard-light.svg"
   xml:space="preserve"
   inkscape:version="1.2.2 (732a01da63, 2022-12-09)"
   xmlns:inkscape="http://www.inkscape.org/namespaces/inkscape"
   xmlns:sodipodi="http://sodipodi.sourceforge.net/DTD/sodipodi-0.dtd"
   xmlns="http://www.w3.org/2000/svg"
   xmlns:svg="http://www.w3.org/2000/svg"><defs
     id="defs2152"><linearGradient
       id="paint0_linear_17943_99496"
       x1="42.2659"
       y1="0.38742101"
       x2="42.2659"
       y2="23.6126"
       gradientUnits="userSpaceOnUse"><stop
         stop-color="white"
         id="stop2218" /><stop
         offset="1"
         stop-color="white"
         stop-opacity="0.75"
         id="stop2220" /></linearGradient><linearGradient
       id="paint1_linear_17943_99496"
       x1="8.3080101"
       y1="0.83468598"
       x2="8.3080101"
       y2="13.0775"
       gradientUnits="userSpaceOnUse"><stop
         stop-color="white"
         id="stop2223" /><stop
         offset="1"
         stop-color="white"
         stop-opacity="0.75"
         id="stop2225" /></linearGradient></defs><sodipodi:namedview
     id="namedview2150"
     pagecolor="#ffffff"
     bordercolor="#000000"
     borderopacity="0.25"
     inkscape:showpageshadow="2"
     inkscape:pageopacity="0.0"
     inkscape:pagecheckerboard="0"
     inkscape:deskcolor="#d1d1d1"
     showgrid="false"
     inkscape:zoom="17.666667"
     inkscape:cx="13.471698"
     inkscape:cy="13.528302"
     inkscape:window-width="2560"
     inkscape:window-height="1369"
     inkscape:window-x="-8"
     inkscape:window-y="-8"
     inkscape:window-maximized="1"
     inkscape:current-layer="svg2148" /><path
     d="M 9.9701693,1.8330029 H 18.214575 V 15.30181 H 9.9701693 Z"
     fill="#f26122"
     id="path2142"
     style="stroke-width:0.538322" /><path
     d="m 10.858132,8.5675069 c -0.01362,-2.621468 1.177095,-5.104033 3.229934,-6.734385 -3.512338,-2.76216395 -8.55771,-2.36106695 -11.5895459,0.921344 -3.03182299,3.282388 -3.03182299,8.3437471 0,11.6261141 3.0318359,3.28242 8.0772079,3.683524 11.5895459,0.921338 -2.052839,-1.630309 -3.243554,-4.112944 -3.229934,-6.7344111 z"
     fill="#ea1d25"
     id="path2144"
     style="stroke-width:0.538322" /><path
     d="m 27.944966,8.5675609 c -0.0021,3.2778441 -1.874277,6.2672011 -4.822399,7.7000001 -2.948122,1.432798 -6.455345,1.057964 -9.034017,-0.965589 3.714478,-2.924759 4.357719,-8.3055591 1.437321,-12.0234501 -0.418654,-0.53837 -0.901313,-1.023743 -1.437321,-1.445395 2.578672,-2.02355695 6.085895,-2.39843195 9.034017,-0.96560995 2.948122,1.43281995 4.8203,4.42214495 4.822399,7.70004395 z"
     fill="#f69e1e"
     id="path2146"
     style="stroke-width:0.538322" /><g
     style="fill:#1a1f71;fill-opacity:1"
     id="g2242"
     transform="matrix(0.37141593,0,0,0.37141593,-0.31338219,17.874554)"><path
       d="m 27.8855,30.176584 3.848,-22.5271078 h 6.1524 L 34.0369,30.176584 Z M 56.2374,8.1436742 c -1.7657,-0.638267 -3.6308,-0.958541 -5.5087,-0.94591 -6.0718,0 -10.3493,3.0515398 -10.3862,7.4259398 -0.0334,3.23308 3.0544,5.03638 5.3854,6.11218 2.3922,1.1034 3.1961,1.8068 3.1846,2.7917 -0.015,1.508 -1.9107,2.1964 -3.6763,2.1964 -2.4601,0 -3.7662,-0.3447 -5.7851,-1.1803 l -0.7912,-0.3575 -0.8627,5.0365 c 1.4351,0.6275 4.0898,1.1723 6.8447,1.1999 6.46,0 10.6534,-3.0159 10.7018,-7.6869 0.023,-2.5596 -1.6124,-4.5077 -5.1597,-6.11331 -2.148,-1.03441 -3.4632,-1.73551 -3.4494,-2.78946 0,-0.93441 1.1137,-1.93429 3.5196,-1.93429 1.5764,-0.03522 3.1427,0.25838 4.5989,0.862 l 0.5505,0.25973 z M 72.0436,7.6494762 H 67.31 c -1.4661,0 -2.5637,0.399988 -3.2076,1.859658 L 55.0039,30.061684 H 61.48 c 0,0 1.0366,-2.7332 1.275,-3.3331 l 7.7591,0.0092 c 0.1808,0.7769 0.7371,3.3239 0.7371,3.3239 h 5.7494 z M 64.5171,22.131184 c 0.5079,-1.2964 2.4486,-6.28922 2.4486,-6.28922 -0.0369,0.05977 0.5044,-1.30335 0.8142,-2.14811 l 0.4158,1.94013 c 0,0 1.177,5.3709 1.4223,6.4972 z M 22.6648,7.6494762 16.6621,22.957584 l -0.6392,-3.1113 c -1.1172,-3.58592 -4.5988,-7.47069 -8.49165,-9.41538 l 5.48915,19.63078 6.4864,-0.0069 9.6526,-22.4053078 h -6.5245"
       fill="url(#paint0_linear_17943_99496)"
       id="path2214"
       style="fill:#1a1f71;fill-opacity:1" /><path
       d="M 10.79,7.6492722 H 0.923212 L 0.84375,8.1170342 C 8.55335,9.9801142 13.6543,14.480964 15.7723,19.887484 L 13.6174,9.5433842 c -0.372,-1.42403 -1.45,-1.849292 -2.7848,-1.898714"
       fill="url(#paint1_linear_17943_99496)"
       id="path2216"
       style="fill:#1a1f71;fill-opacity:1" /></g></svg>
