<?xml version="1.0" encoding="UTF-8" standalone="no"?>
<svg
   width="36.081379"
   height="28.834366"
   viewBox="0 0 36.081379 28.834366"
   fill="none"
   version="1.1"
   id="svg2148"
   sodipodi:docname="logo-visa-mastercard.svg"
   xml:space="preserve"
   inkscape:version="1.2.2 (732a01da63, 2022-12-09)"
   xmlns:inkscape="http://www.inkscape.org/namespaces/inkscape"
   xmlns:sodipodi="http://sodipodi.sourceforge.net/DTD/sodipodi-0.dtd"
   xmlns="http://www.w3.org/2000/svg"
   xmlns:svg="http://www.w3.org/2000/svg"><defs
     id="defs2152"><linearGradient
       id="paint0_linear_17943_99496"
       x1="42.2659"
       y1="0.38742101"
       x2="42.2659"
       y2="23.6126"
       gradientUnits="userSpaceOnUse"><stop
         stop-color="white"
         id="stop2218" /><stop
         offset="1"
         stop-color="white"
         stop-opacity="0.75"
         id="stop2220" /></linearGradient><linearGradient
       id="paint1_linear_17943_99496"
       x1="8.3080101"
       y1="0.83468598"
       x2="8.3080101"
       y2="13.0775"
       gradientUnits="userSpaceOnUse"><stop
         stop-color="white"
         id="stop2223" /><stop
         offset="1"
         stop-color="white"
         stop-opacity="0.75"
         id="stop2225" /></linearGradient></defs><sodipodi:namedview
     id="namedview2150"
     pagecolor="#ffffff"
     bordercolor="#000000"
     borderopacity="0.25"
     inkscape:showpageshadow="2"
     inkscape:pageopacity="0.0"
     inkscape:pagecheckerboard="0"
     inkscape:deskcolor="#d1d1d1"
     showgrid="false"
     inkscape:zoom="17.666667"
     inkscape:cx="17.320755"
     inkscape:cy="13.528302"
     inkscape:window-width="2560"
     inkscape:window-height="1369"
     inkscape:window-x="-8"
     inkscape:window-y="-8"
     inkscape:window-maximized="1"
     inkscape:current-layer="svg2148" /><path
     d="m 13.819226,1.8330034 h 8.244406 V 15.30181 h -8.244406 z"
     fill="#f26122"
     id="path2142"
     style="stroke-width:0.538322" /><path
     d="m 14.707189,8.5675068 c -0.01362,-2.6214681 1.177095,-5.1040329 3.229934,-6.734385 -3.512338,-2.76216403 -8.5577103,-2.36106654 -11.5895462,0.921344 -3.031823,3.2823879 -3.031823,8.3437472 0,11.6261142 3.0318359,3.28242 8.0772082,3.683524 11.5895462,0.921338 -2.052839,-1.630309 -3.243554,-4.112944 -3.229934,-6.7344112 z"
     fill="#ea1d25"
     id="path2144"
     style="stroke-width:0.538322" /><path
     d="m 31.794023,8.5675606 c -0.0021,3.2778444 -1.874277,6.2672014 -4.822399,7.7000004 -2.948122,1.432798 -6.455345,1.057964 -9.034017,-0.965589 3.714478,-2.924759 4.357719,-8.3055588 1.437321,-12.0234495 -0.418654,-0.5383707 -0.901313,-1.0237436 -1.437321,-1.4453953 2.578672,-2.02355678 6.085895,-2.39843205 9.034017,-0.96561027 2.948122,1.43282017 4.8203,4.42214537 4.822399,7.70004367 z"
     fill="#f69e1e"
     id="path2146"
     style="stroke-width:0.538322" /><g
     style="fill:#1a1f71;fill-opacity:1"
     id="g2242"
     transform="matrix(0.47377718,0,0,0.47377718,-0.3997495,17.647254)"><path
       d="m 27.8855,23.3666 3.848,-22.527108 h 6.1524 L 34.0369,23.3666 Z M 56.2374,1.33369 C 54.4717,0.695423 52.6066,0.375149 50.7287,0.38778 c -6.0718,0 -10.3493,3.05154 -10.3862,7.42594 -0.0334,3.23308 3.0544,5.03638 5.3854,6.11218 2.3922,1.1034 3.1961,1.8068 3.1846,2.7917 -0.015,1.508 -1.9107,2.1964 -3.6763,2.1964 -2.4601,0 -3.7662,-0.3447 -5.7851,-1.1803 l -0.7912,-0.3575 -0.8627,5.0365 c 1.4351,0.6275 4.0898,1.1723 6.8447,1.1999 6.46,0 10.6534,-3.0159 10.7018,-7.6869 0.023,-2.5596 -1.6124,-4.5077 -5.1597,-6.11331 -2.148,-1.03441 -3.4632,-1.73551 -3.4494,-2.78946 0,-0.93441 1.1137,-1.93429 3.5196,-1.93429 1.5764,-0.03522 3.1427,0.25838 4.5989,0.862 l 0.5505,0.25973 z M 72.0436,0.839492 H 67.31 c -1.4661,0 -2.5637,0.399988 -3.2076,1.859658 L 55.0039,23.2517 H 61.48 c 0,0 1.0366,-2.7332 1.275,-3.3331 l 7.7591,0.0092 c 0.1808,0.7769 0.7371,3.3239 0.7371,3.3239 h 5.7494 z M 64.5171,15.3212 C 65.025,14.0248 66.9657,9.03198 66.9657,9.03198 66.9288,9.09175 67.4701,7.72863 67.7799,6.88387 L 68.1957,8.824 c 0,0 1.177,5.3709 1.4223,6.4972 z M 22.6648,0.839492 16.6621,16.1476 16.0229,13.0363 C 14.9057,9.45038 11.4241,5.56561 7.53125,3.62092 L 13.0204,23.2517 19.5068,23.2448 29.1594,0.839492 h -6.5245"
       fill="url(#paint0_linear_17943_99496)"
       id="path2214"
       style="fill:#1a1f71;fill-opacity:1" /><path
       d="M 10.79,0.839288 H 0.923212 L 0.84375,1.30705 C 8.55335,3.17013 13.6543,7.67098 15.7723,13.0775 L 13.6174,2.7334 c -0.372,-1.42403 -1.45,-1.849292 -2.7848,-1.898714"
       fill="url(#paint1_linear_17943_99496)"
       id="path2216"
       style="fill:#1a1f71;fill-opacity:1" /></g></svg>
